<svg id="Слой_1" data-name="Слой 1" xmlns="http://www.w3.org/2000/svg" viewBox="0 0 331 331"><defs><style>.cls-1{fill:#ffa412;}</style></defs><title>logo</title><g id="Слой_2" data-name="Слой 2"><path class="cls-1" d="M80.5,307.5l56-196h70l24,34,11-39h69l7,88,29-2,6,72-21,39C320,315.91,298.3,338.1,271,348c-35.38,12.84-77.42,11.8-90,12C154.92,360.42,107,323,80.5,307.5Z" transform="translate(-41 -34)"/></g><path d="M206.5,41A158.5,158.5,0,0,1,318.58,311.58,158.5,158.5,0,1,1,94.42,87.42,157.46,157.46,0,0,1,206.5,41m0-7A165.5,165.5,0,1,0,372,199.5,165.5,165.5,0,0,0,206.5,34Z" transform="translate(-41 -34)"/></svg>